REM DIRINDEX 1\2,1\3,1\4,1\5
REM DIRNAME "folder01","folder02","folder03","folder04","folder05"
TITLE ""
FILE "1Q_t_0539-0548.mp3" MP3
  TRACK 01 AUDIO
    TITLE "3:cjc172_2550"
    INDEX 01 00:00:00
  TRACK 02 AUDIO
    TITLE "0:"
    INDEX 01 00:01:39
  TRACK 03 AUDIO
    TITLE "4:cjc172_2551"
    INDEX 01 00:01:47
  TRACK 04 AUDIO
    TITLE "0:"
    INDEX 01 00:04:45
  TRACK 05 AUDIO
    TITLE "5:cjc172_2552"
    INDEX 01 00:04:53
  TRACK 06 AUDIO
    TITLE "0:"
    INDEX 01 00:11:28
  TRACK 07 AUDIO
    TITLE "3:cjc172_2553"
    INDEX 01 00:11:73
  TRACK 08 AUDIO
    TITLE "0:"
    INDEX 01 00:13:21
  TRACK 09 AUDIO
    TITLE "4:cjc172_2554"
    INDEX 01 00:13:31
  TRACK 10 AUDIO
    TITLE "0:"
    INDEX 01 00:16:49
  TRACK 11 AUDIO
    TITLE "5:cjc172_2555"
    INDEX 01 00:16:56
  TRACK 12 AUDIO
    TITLE "0:"
    INDEX 01 00:21:38
  TRACK 13 AUDIO
    TITLE "3:cjc172_2556"
    INDEX 01 00:22:10
  TRACK 14 AUDIO
    TITLE "0:"
    INDEX 01 00:23:07
  TRACK 15 AUDIO
    TITLE "4:cjc172_2557"
    INDEX 01 00:23:19
  TRACK 16 AUDIO
    TITLE "0:"
    INDEX 01 00:24:28
  TRACK 17 AUDIO
    TITLE "5:cjc172_2558"
    INDEX 01 00:24:36
  TRACK 18 AUDIO
    TITLE "0:"
    INDEX 01 00:29:35
  TRACK 19 AUDIO
    TITLE "3:cjc172_2559"
    INDEX 01 00:30:07
  TRACK 20 AUDIO
    TITLE "0:"
    INDEX 01 00:31:15
  TRACK 21 AUDIO
    TITLE "4:cjc172_2560"
    INDEX 01 00:31:23
  TRACK 22 AUDIO
    TITLE "0:"
    INDEX 01 00:34:44
  TRACK 23 AUDIO
    TITLE "5:cjc172_2561"
    INDEX 01 00:34:54
  TRACK 24 AUDIO
    TITLE "0:"
    INDEX 01 00:41:31
  TRACK 25 AUDIO
    TITLE "3:cjc172_2562"
    INDEX 01 00:42:01
  TRACK 26 AUDIO
    TITLE "0:"
    INDEX 01 00:43:10
  TRACK 27 AUDIO
    TITLE "4:cjc172_2563"
    INDEX 01 00:43:18
  TRACK 28 AUDIO
    TITLE "0:"
    INDEX 01 00:45:23
  TRACK 29 AUDIO
    TITLE "5:cjc172_2564"
    INDEX 01 00:45:31
  TRACK 30 AUDIO
    TITLE "0:"
    INDEX 01 00:51:31
  TRACK 31 AUDIO
    TITLE "3:cjc172_2565"
    INDEX 01 00:52:01
  TRACK 32 AUDIO
    TITLE "0:"
    INDEX 01 00:53:32
  TRACK 33 AUDIO
    TITLE "4:cjc172_2566"
    INDEX 01 00:53:42
  TRACK 34 AUDIO
    TITLE "0:"
    INDEX 01 00:56:40
  TRACK 35 AUDIO
    TITLE "5:cjc172_2567"
    INDEX 01 00:56:48
  TRACK 36 AUDIO
    TITLE "0:"
    INDEX 01 01:03:07
  TRACK 37 AUDIO
    TITLE "3:cjc172_2568"
    INDEX 01 01:03:56
  TRACK 38 AUDIO
    TITLE "0:"
    INDEX 01 01:04:53
  TRACK 39 AUDIO
    TITLE "4:cjc172_2569"
    INDEX 01 01:04:63
  TRACK 40 AUDIO
    TITLE "0:"
    INDEX 01 01:08:04
  TRACK 41 AUDIO
    TITLE "5:cjc172_2570"
    INDEX 01 01:08:12
  TRACK 42 AUDIO
    TITLE "0:"
    INDEX 01 01:13:74
  TRACK 43 AUDIO
    TITLE "3:cjc172_2571"
    INDEX 01 01:14:46
  TRACK 44 AUDIO
    TITLE "0:"
    INDEX 01 01:15:65
  TRACK 45 AUDIO
    TITLE "4:cjc172_2572"
    INDEX 01 01:16:00
  TRACK 46 AUDIO
    TITLE "0:"
    INDEX 01 01:19:37
  TRACK 47 AUDIO
    TITLE "5:cjc172_2573"
    INDEX 01 01:19:45
  TRACK 48 AUDIO
    TITLE "0:"
    INDEX 01 01:25:26
  TRACK 49 AUDIO
    TITLE "3:cjc172_2574"
    INDEX 01 01:26:00
  TRACK 50 AUDIO
    TITLE "0:"
    INDEX 01 01:27:05
  TRACK 51 AUDIO
    TITLE "4:cjc172_2575"
    INDEX 01 01:27:17
  TRACK 52 AUDIO
    TITLE "0:"
    INDEX 01 01:30:25
  TRACK 53 AUDIO
    TITLE "5:cjc172_2576"
    INDEX 01 01:30:33
  TRACK 54 AUDIO
    TITLE "0:"
    INDEX 01 01:36:44
  TRACK 55 AUDIO
    TITLE "3:cjc172_2577"
    INDEX 01 01:37:18
  TRACK 56 AUDIO
    TITLE "0:"
    INDEX 01 01:38:17
  TRACK 57 AUDIO
    TITLE "4:cjc172_2578"
    INDEX 01 01:38:27
  TRACK 58 AUDIO
    TITLE "0:"
    INDEX 01 01:40:37
  TRACK 59 AUDIO
    TITLE "5:cjc172_2579"
    INDEX 01 01:40:41
  TRACK 60 AUDIO
    TITLE "0:"
    INDEX 01 01:46:28
